HIERARCHY
ROOT root     
{
	OFFSET 0.0000 0.0000 0.0000
	CHANNELS 6 Xposition Yposition Zposition Zrotation Yrotation Xrotation
	JOINT pelvis   
	{
		OFFSET 0.0000 0.0000 0.0000
		CHANNELS 3 Zrotation Yrotation Xrotation
		JOINT thorax   
		{
			OFFSET 0.0000 23.0750 -5.0000
			CHANNELS 3 Zrotation Yrotation Xrotation
			JOINT rclavicle
			{
				OFFSET 0.0000 28.0009 0.0000
				CHANNELS 3 Zrotation Yrotation Xrotation
				JOINT rhumerus 
				{
					OFFSET -18.5725 5.5939 0.0000
					CHANNELS 3 Zrotation Yrotation Xrotation
					JOINT rradius  
					{
						OFFSET -24.8459 0.0000 0.0000
						CHANNELS 3 Zrotation Yrotation Xrotation
						JOINT rhand    
						{
							OFFSET -24.5477 0.0000 0.0000
							CHANNELS 3 Zrotation Yrotation Xrotation
							End Site
							{
								OFFSET -8.1826 0.0000 0.0000
							}
						}
					}
				}
			}
			JOINT lclavicle
			{
				OFFSET 0.0000 28.0009 0.0000
				CHANNELS 3 Zrotation Yrotation Xrotation
				JOINT lhumerus 
				{
					OFFSET 18.5725 5.5939 0.0000
					CHANNELS 3 Zrotation Yrotation Xrotation
					JOINT lradius  
					{
						OFFSET 24.8459 0.0000 0.0000
						CHANNELS 3 Zrotation Yrotation Xrotation
						JOINT lhand    
						{
							OFFSET 24.5477 0.0000 0.0000
							CHANNELS 3 Zrotation Yrotation Xrotation
							End Site
							{
								OFFSET 8.1826 0.0000 0.0000
							}
						}
					}
				}
			}
			JOINT head     
			{
				OFFSET 0.0000 35.2030 0.0000
				CHANNELS 3 Zrotation Yrotation Xrotation
				End Site
				{
					OFFSET 0.0000 11.7343 0.0000
				}
			}
		}
		JOINT rfemur   
		{
			OFFSET -8.2817 0.0000 0.0000
			CHANNELS 3 Zrotation Yrotation Xrotation
			JOINT rtibia   
			{
				OFFSET 0.0000 -43.3627 0.0000
				CHANNELS 3 Zrotation Yrotation Xrotation
				JOINT rfoot    
				{
					OFFSET 0.0000 -38.2947 0.0000
					CHANNELS 3 Zrotation Yrotation Xrotation
					JOINT rtoes    
					{
						OFFSET 0.0000 0.0000 16.6054
						CHANNELS 3 Zrotation Yrotation Xrotation
						End Site
						{
							OFFSET 0.0000 0.0000 5.5351
						}
					}
				}
			}
		}
		JOINT lfemur   
		{
			OFFSET 8.2817 0.0000 0.0000
			CHANNELS 3 Zrotation Yrotation Xrotation
			JOINT ltibia   
			{
				OFFSET 0.0000 -43.3627 0.0000
				CHANNELS 3 Zrotation Yrotation Xrotation
				JOINT lfoot    
				{
					OFFSET 0.0000 -38.2947 0.0000
					CHANNELS 3 Zrotation Yrotation Xrotation
					JOINT ltoes    
					{
						OFFSET 0.0000 0.0000 16.6054
						CHANNELS 3 Zrotation Yrotation Xrotation
						End Site
						{
							OFFSET 0.0000 0.0000 5.5351
						}
					}
				}
			}
		}
	}
}
MOTION
Frames: 23
Frame Time: .0333333
1.1024 79.391 7.2379 -93.2832 85.3197 -67.2439 0 -0 0 16.7266 -13.8013 -11.2662 21.898 -5.85226 -2.82614e-05 32.6312 19.8915 -43.1039 0 54.3703 0 -24.8321 1.77196 -0.390191 -17.2438 11.2604 4.2253e-05 -6.15507 -23.4485 4.20448 -180 -66.6469 180 14.9299 -6.70549 -0.879612 -15.1423 10.3452 -16.6817 7.31764 0.602431 -41.6184 -0 -0 47.7167 1.61525e-05 -5.07471 -16.8698 1.47624 1.22494e-05 -22.8057 9.21157 2.97007 -13.3407 -0 -0 67.8106 3.9059e-05 13.6014 20.3722 4.81444 -3.07117e-05 -36.6166 
2.6923 79.718 7.3819 -90.8265 85.6994 -64.8531 0 -0 0 15.5735 -13.4417 -10.9574 21.991 -5.67903 1.80761e-05 33.3506 20.1893 -42.0053 0 55.5671 0 -24.5047 1.80153 -0.391293 -17.125 11.4001 4.63369e-05 -6.05999 -22.5103 4.62542 -180 -67.2233 180 14.9996 -6.50373 -0.85716 -15.0844 10.2262 -16.6315 6.97361 0.635711 -39.7514 -0 -0 46.3401 1.052e-05 -5.18657 -16.8574 1.50779 7.86419e-06 -22.1838 8.68829 2.57775 -15.6408 -0 -0 69.7746 2.02398e-05 14.2909 17.9837 4.49686 4.77251e-05 -34.4332 
4.2742 80.075 7.5108 -87.8565 86.1045 -61.9391 0 -0 0 14.3727 -13.0041 -10.6199 22.0215 -5.52197 -4.36446e-06 34.0368 20.4086 -40.7939 -5.24991e-07 56.8271 -9.70411e-07 -24.0655 1.79135 -0.381892 -16.9788 11.5316 7.81239e-07 -5.91287 -21.652 4.84454 180 -67.9704 180 15.1751 -6.24597 -0.832797 -14.9656 9.9927 -16.6455 6.60183 0.649295 -37.8444 -0 -0 44.8144 2.1781e-05 -5.31692 -16.7064 1.53245 4.81972e-07 -21.6336 8.14132 2.14273 -17.9623 -0 -0 71.4536 -2.35781e-05 14.8559 15.6202 4.08522 -7.08898e-06 -32.1426 
5.8563 80.458 7.6258 -84.207 86.4978 -58.3428 0 -0 0 13.1502 -12.4823 -10.2564 21.986 -5.38154 9.25123e-06 34.6556 20.5495 -39.4948 -5.55693e-07 58.1389 -9.99635e-07 -23.5269 1.75308 -0.365085 -16.8177 11.6501 4.84251e-05 -5.73233 -20.8999 4.884 180 -68.8965 180 15.4392 -5.9365 -0.805436 -14.7954 9.65309 -16.6937 6.22043 0.638151 -35.8873 -0 -0 43.1393 2.13042e-05 -5.4638 -16.4236 1.54913 4.7324e-06 -21.3128 7.59278 1.68882 -20.2823 -0 -0 72.8395 3.8486e-05 15.2945 13.3589 3.61519 -1.28425e-05 -29.9228 
7.4446 80.863 7.731 -79.8108 86.8781 -54.0009 0 -0 0 11.947 -11.8674 -9.8823 21.8927 -5.26385 3.80259e-05 35.1654 20.6269 -38.123 -5.89861e-07 59.484 -1.03236e-06 -22.9203 1.69579 -0.343797 -16.6469 11.7476 -5.43342e-05 -5.54929 -20.2624 4.7749 180 -69.9962 180 15.7649 -5.58426 -0.773709 -14.5851 9.21798 -16.747 5.85406 0.605704 -33.8806 -0 -0 41.3137 2.44798e-06 -5.62824 -15.998 1.55583 1.04081e-05 -21.3394 7.07409 1.24208 -22.5922 -0 -0 73.9326 -1.74894e-05 15.6057 11.2547 3.12027 7.24895e-06 -27.9161 
9.0511 81.285 7.8174 -73.994 87.2272 -48.2613 0 -0 0 10.7213 -11.1725 -9.48014 21.7493 -5.14762 1.43602e-05 35.5638 20.6247 -36.7185 0 60.862 0 -22.214 1.66415 -0.326691 -16.4899 11.8314 -0.000114761 -5.32245 -19.7736 4.52742 180 -71.2774 -180 16.1403 -5.19161 -0.73662 -14.3281 8.70518 -16.7824 5.46769 0.521332 -31.8106 -0 -0 39.3656 -5.78754e-06 -5.77195 -15.4235 1.5399 -3.66395e-06 -21.8619 6.54167 0.804381 -24.8396 -0 -0 74.7122 -1.93056e-06 15.807 9.32566 2.62676 1.2247e-05 -26.1845 
10.676 81.719 7.8922 -66.7509 87.5108 -41.1029 0 -0 0 9.5235 -10.3981 -9.08391 21.5794 -5.05915 -6.8459e-06 35.7995 20.5974 -35.2728 0 62.2332 0 -21.4644 1.65994 -0.314615 -16.3254 11.879 9.70247e-05 -5.12841 -19.3919 4.19014 -180 -72.7089 180 16.5248 -4.78128 -0.694671 -14.0362 8.13108 -16.7736 5.09011 0.399069 -29.6997 -0 -0 37.3103 -1.68631e-05 -5.89478 -14.6608 1.49685 -1.08679e-05 -22.9097 6.03389 0.396498 -27.0378 -0 -0 75.1867 -2.95028e-05 15.9005 7.58481 2.15346 5.62415e-06 -24.7655 
12.325 82.159 7.9525 -57.5174 87.7778 -31.9797 0 -0 0 8.34009 -9.55817 -8.69899 21.3931 -4.99235 -8.39664e-06 35.867 20.5603 -33.8069 0 63.5838 0 -20.6708 1.71225 -0.312289 -16.1614 11.894 -0.000110219 -4.95714 -19.1104 3.78098 180 -74.2778 180 16.9008 -4.36523 -0.648798 -13.7072 7.51311 -16.7088 4.70201 0.232519 -27.5632 -0 -0 35.1891 -6.58129e-06 -5.97015 -13.6792 1.41672 1.30107e-05 -24.5276 5.53234 0.0189322 -29.1629 -0 -0 75.3425 2.29618e-05 15.898 6.01823 1.71041 -3.27411e-06 -23.6362 
13.998 82.602 7.9986 -46.0565 87.9464 -20.6362 0 -0 0 7.17062 -8.66678 -8.33887 21.2048 -4.94844 -3.69716e-05 35.7666 20.5415 -32.3255 0 64.8922 0 -19.851 1.84009 -0.322005 -15.9932 11.8707 8.08444e-05 -4.81711 -18.9031 3.31875 -180 -75.9589 180 17.2469 -3.95862 -0.60059 -13.342 6.86853 -16.5773 4.29421 0.0268061 -25.4227 -0 -0 33.0437 -1.59527e-05 -5.97904 -12.4483 1.29333 4.03362e-07 -26.7078 5.0338 -0.327759 -31.2033 -0 -0 75.1679 -7.93172e-06 15.8042 4.61084 1.30355 4.63294e-06 -22.7458 
15.694 83.04 8.0315 -32.9199 88.0067 -7.62255 0 -0 0 6.01708 -7.73796 -8.01779 21.0225 -4.92821 -4.70741e-06 35.5001 20.5718 -30.8333 0 66.1377 0 -19.0224 2.05475 -0.344312 -15.8181 11.8111 -6.09459e-05 -4.71863 -18.74 2.81724 -180 -77.7173 180 17.5476 -3.57583 -0.552094 -12.9413 6.21294 -16.3805 3.85892 -0.205998 -23.3084 -0 -0 30.9229 -4.21273e-06 -5.90717 -10.9462 1.12559 -4.28859e-06 -29.4156 4.54015 -0.64419 -33.1523 -0 -0 74.6497 -1.08131e-05 15.6269 3.35156 0.936885 7.19417e-06 -22.0403 
17.41 83.471 8.0538 -19.6434 87.9565 5.52991 0 -0 0 4.88685 -6.78535 -7.75035 20.8474 -4.92706 1.77342e-05 35.0863 20.6709 -29.3298 9.211e-07 67.309 6.13233e-07 -18.2084 2.35796 -0.377893 -15.6363 11.7201 4.77682e-05 -4.65896 -18.5969 2.28132 -180 -79.524 180 17.7961 -3.22655 -0.505313 -12.5067 5.56062 -16.1234 3.39505 -0.4473 -21.2521 -0 -0 28.8737 -4.62919e-06 -5.74685 -9.17132 0.91899 2.08958e-06 -32.5008 4.06069 -0.929799 -35.0083 -0 -0 73.7744 -7.50637e-06 15.3711 2.24254 0.616309 1.60612e-06 -21.4837 
19.141 83.89 8.0684 -8.03936 87.7624 17.0329 0 -0 0 3.78726 -5.82259 -7.54713 20.6795 -4.9402 1.43886e-05 34.5487 20.8576 -27.8103 9.58962e-07 68.3948 6.51656e-07 -17.4311 2.74421 -0.42079 -15.4502 11.6094 8.68039e-06 -4.63651 -18.4513 1.70973 -180 -81.3528 180 17.9846 -2.91764 -0.461794 -12.0423 4.92415 -15.818 2.90442 -0.678209 -19.2808 -0 -0 26.9348 -2.07208e-06 -5.49377 -7.13922 0.68479 -3.88534e-06 -35.8224 3.60746 -1.18176 -36.7637 -0 -0 72.5355 -3.65991e-06 15.0418 1.29819 0.348805 -4.18947e-07 -21.0438 
20.884 84.294 8.0785 0.818596 87.468 25.8138 0 -0 0 2.72634 -4.86264 -7.41466 20.5147 -4.96451 -6.18963e-06 33.9099 21.1482 -26.2708 -6.90501e-07 69.3969 -9.97293e-07 -16.7132 3.20032 -0.470203 -15.2591 11.4851 -5.50785e-05 -4.65851 -18.2761 1.09799 -180 -83.1798 180 18.1127 -2.65495 -0.423304 -11.5476 4.31422 -15.4804 2.39325 -0.880466 -17.4169 -0 -0 25.1361 -2.71367e-06 -5.15066 -4.87499 0.438903 -1.3256e-06 -39.2719 3.19458 -1.39494 -38.4177 -0 -0 70.9243 -2.58593e-07 14.6517 0.543794 0.142198 -9.02752e-08 -20.7126 
22.636 84.68 8.0878 6.9647 87.0899 31.9215 0 -0 0 1.71301 -3.91771 -7.35738 20.3432 -4.99128 6.11084e-06 33.2023 21.5438 -24.7054 -7.29764e-07 70.3157 -1.03613e-06 -16.0727 3.70705 -0.523607 -15.0668 11.3619 2.75093e-05 -4.71761 -18.062 0.435679 -180 -84.986 180 18.1794 -2.43896 -0.390297 -11.0235 3.74088 -15.1262 1.87107 -1.04001 -15.6745 -0 -0 23.4916 -9.13798e-07 -4.72381 -2.42365 0.200195 -2.55779e-06 -42.6884 2.83462 -1.56098 -39.9683 -0 -0 68.9487 -3.68786e-08 14.2149 0.00749991 0.00189999 -5.16991e-09 -20.5028 
24.394 85.045 8.0995 10.8617 86.6722 35.8156 0 -0 0 0.75249 -2.99996 -7.37578 20.1595 -5.0129 -2.11725e-05 32.4528 22.0407 -23.1103 0 71.1685 0 -15.522 4.24237 -0.578414 -14.8819 11.2526 5.36616e-05 -4.80771 -17.8036 -0.289014 180 -86.7629 180 18.1869 -2.26974 -0.363322 -10.4674 3.21173 -14.7739 1.34756 -1.14845 -14.0591 -0 -0 22.001 -1.30921e-07 -4.22573 0.167704 -0.0124001 3.89531e-08 -45.9803 2.53563 -1.67125 -41.4134 -0 -0 66.6184 -1.70793e-06 13.753 -0.291801 -0.0713987 1.44901e-07 -20.4318 
26.156 85.387 8.1161 13.0735 86.2175 38.07 0 -0 0 -0.153705 -2.1207 -7.4674 19.9545 -5.02227 1.20133e-05 31.6908 22.6278 -21.4844 -8.10604e-07 71.9734 -1.11624e-06 -15.0647 4.78435 -0.632996 -14.7087 11.1694 9.10658e-05 -4.92279 -17.5007 -1.08785 -180 -88.5233 180 18.1342 -2.14554 -0.342397 -9.87579 2.73315 -14.4386 0.831296 -1.20154 -12.5699 -0 -0 20.6513 1.35283e-06 -3.67467 2.85277 -0.183103 -2.21375e-06 -49.1045 2.29885 -1.71733 -42.7514 -0 -0 63.9537 2.05062e-07 13.2834 -0.356001 -0.0839993 5.44127e-07 -20.5087 
27.921 85.705 8.1395 14.1386 85.7502 39.2183 0 -0 0 -1.00879 -1.29043 -7.62693 19.726 -5.01344 -7.04262e-06 30.9396 23.2924 -19.8247 0 72.7501 0 -14.6981 5.313 -0.685692 -14.5538 11.1218 -4.10949e-05 -5.05573 -17.1585 -1.97123 0 -89.7688 0 18.0256 -2.06515 -0.327589 -9.24188 2.31004 -14.1323 0.328802 -1.19796 -11.1971 -0 -0 19.4184 -2.25865e-06 -3.09587 5.59075 -0.301905 2.42682e-06 -52.0653 2.12016 -1.69359 -43.9797 -0 -0 60.9769 -1.07843e-06 12.8243 -0.213608 -0.0486003 9.89074e-08 -20.7361 
29.691 85.998 8.1708 14.4374 85.2763 39.6373 0 -0 0 -1.81981 -0.5182 -7.84794 19.4708 -4.98183 1.03903e-05 30.2219 24.0203 -18.1366 1.2057e-06 73.5195 9.00684e-07 -14.4107 5.81121 -0.735293 -14.4203 11.1162 -2.78875e-05 -5.19868 -16.7871 -2.94694 7.873e-06 -88.1161 -8.13451e-06 17.8616 -2.02735 -0.318586 -8.55819 1.94535 -13.8663 -0.155803 -1.1378 -9.92424 -0 -0 18.2697 2.91523e-06 -2.51954 8.34825 -0.366005 2.57143e-06 -54.8896 1.98917 -1.59935 -45.0945 -0 -0 57.7108 2.35468e-07 12.3852 0.0817982 0.018 -3.94355e-08 -21.1159 
31.467 86.264 8.2101 14.2678 84.7875 39.6259 0 -0 0 -2.59722 0.188605 -8.11982 19.1912 -4.92543 1.04089e-06 29.5519 24.7954 -16.4231 0 74.3019 0 -14.1844 6.26589 -0.780389 -14.3109 11.1554 -8.7223e-05 -5.3442 -16.3955 -4.01887 0 -86.4858 0 17.6458 -2.03067 -0.315183 -7.81725 1.63994 -13.6466 -0.621802 -1.02189 -8.7306 -0 -0 17.1739 -1.25795e-06 -1.97632 11.1 -0.380603 -2.94959e-06 -57.6126 1.89353 -1.43961 -46.0875 -0 -0 54.1758 2.48759e-06 11.9668 0.459502 0.0974007 1.8856e-07 -21.6524 
33.253 86.5 8.2568 13.8524 84.2904 39.39 0 -0 0 -3.35363 0.825296 -8.42873 18.8897 -4.84498 5.45877e-06 28.9383 25.6076 -14.693 0 75.1146 0 -13.9993 6.66894 -0.81973 -14.2281 11.2465 -1.95637e-05 -5.48094 -16.007 -5.1874 -1.75248e-06 -84.8502 1.60143e-06 17.3878 -2.07395 -0.317203 -7.01336 1.39283 -13.4745 -1.0711 -0.853196 -7.58895 -0 -0 16.099 -5.94923e-07 -1.49234 13.8256 -0.356701 2.21013e-06 -60.2408 1.81974 -1.22606 -46.9424 -0 -0 50.3807 3.66619e-06 11.5628 0.844088 0.172699 -1.5857e-06 -22.3482 
35.055 86.704 8.3093 13.3409 83.7978 39.0574 0 -0 0 -4.10045 1.39237 -8.75945 18.5678 -4.74038 -1.55825e-06 28.3886 26.4487 -12.9531 1.38676e-06 75.9581 1.08263e-06 -13.8328 7.01615 -0.852104 -14.1656 11.3619 -8.78468e-05 -5.61549 -15.592 -6.44714 3.43282e-07 -83.221 -9.43223e-07 17.0914 -2.15389 -0.323691 -6.14432 1.20073 -13.3469 -1.50872 -0.639006 -6.46785 -0 -0 15.0235 -5.27498e-06 -1.08071 16.5073 -0.307104 -3.30482e-06 -62.7267 1.75894 -0.977262 -47.6346 -0 -0 46.3321 4.96938e-06 11.1617 1.17695 0.232199 -3.33599e-07 -23.2646 
36.883 86.869 8.3657 12.8376 83.2829 38.7195 0 -0 0 -4.84677 1.8948 -9.08457 18.2302 -4.62091 -4.7653e-07 27.8984 27.3225 -11.2113 1.46842e-06 76.8342 1.16456e-06 -13.6685 7.30674 -0.8769 -14.1296 11.5301 -5.63855e-05 -5.72625 -15.2159 -7.79124 0 -81.5738 0 16.7806 -2.26894 -0.334703 -5.21206 1.05811 -13.2605 -1.94052 -0.389198 -5.32849 -0 -0 13.9352 1.80062e-06 -0.740195 19.1274 -0.242594 -1.80138e-06 -64.9893 1.71001 -0.716608 -48.13 -0 -0 42.0313 -2.83952e-06 10.7543 1.41909 0.2695 -6.39879e-08 -24.3875 
38.746 86.989 8.4246 12.3602 82.769 38.3514 0 -0 0 -5.59358 2.3456 -9.38076 17.8742 -4.49045 -1.88901e-05 27.4656 28.2313 -9.47327 0 77.7346 0 -13.4955 7.54351 -0.893839 -14.1087 11.7148 -2.02869e-05 -5.82342 -14.8346 -9.20612 1.56718e-06 -79.924 -1.8702e-06 16.4715 -2.41185 -0.349116 -4.22504 0.957326 -13.2071 -2.37075 -0.117499 -4.13055 -0 -0 12.8301 1.70784e-06 -0.451201 21.6655 -0.166597 4.95482e-07 -66.8912 1.68463 -0.469327 -48.3892 -0 -0 37.4884 2.56633e-06 10.3365 1.57659 0.287495 -2.00984e-06 -25.7482 
